<svg width="38" height="38" viewBox="0 0 38 38" fill="none" xmlns="http://www.w3.org/2000/svg">
<g filter="url(#filter0_d_1287_5416)">
<path d="M19 0C10.7125 0 4 6.7125 4 15C4 21.6375 8.29375 27.2438 14.2562 29.2313C15.0062 29.3625 15.2875 28.9125 15.2875 28.5188C15.2875 28.1625 15.2688 26.9813 15.2688 25.725C11.5 26.4188 10.525 24.8062 10.225 23.9625C10.0562 23.5312 9.325 22.2 8.6875 21.8437C8.1625 21.5625 7.4125 20.8687 8.66875 20.85C9.85 20.8312 10.6938 21.9375 10.975 22.3875C12.325 24.6562 14.4813 24.0188 15.3438 23.625C15.475 22.65 15.8687 21.9937 16.3 21.6187C12.9625 21.2437 9.475 19.95 9.475 14.2125C9.475 12.5812 10.0563 11.2312 11.0125 10.1812C10.8625 9.80625 10.3375 8.26875 11.1625 6.20625C11.1625 6.20625 12.4188 5.8125 15.2875 7.74375C16.4875 7.40625 17.7625 7.2375 19.0375 7.2375C20.3125 7.2375 21.5875 7.40625 22.7875 7.74375C25.6563 5.79375 26.9125 6.20625 26.9125 6.20625C27.7375 8.26875 27.2125 9.80625 27.0625 10.1812C28.0188 11.2312 28.6 12.5625 28.6 14.2125C28.6 19.9687 25.0938 21.2437 21.7563 21.6187C22.3 22.0875 22.7688 22.9875 22.7688 24.3938C22.7688 26.4 22.75 28.0125 22.75 28.5188C22.75 28.9125 23.0313 29.3813 23.7813 29.2313C26.759 28.226 29.3466 26.3122 31.1797 23.7593C33.0128 21.2064 33.9992 18.1429 34 15C34 6.7125 27.2875 0 19 0Z" fill="white"/>
</g>
<defs>
<filter id="filter0_d_1287_5416" x="0" y="0" width="38" height="38" filterUnits="userSpaceOnUse" color-interpolation-filters="sRGB">
<feFlood flood-opacity="0" result="BackgroundImageFix"/>
<feColorMatrix in="SourceAlpha" type="matrix" values="0 0 0 0 0 0 0 0 0 0 0 0 0 0 0 0 0 0 127 0" result="hardAlpha"/>
<feOffset dy="4"/>
<feGaussianBlur stdDeviation="2"/>
<feComposite in2="hardAlpha" operator="out"/>
<feColorMatrix type="matrix" values="0 0 0 0 0 0 0 0 0 0 0 0 0 0 0 0 0 0 0.25 0"/>
<feBlend mode="normal" in2="BackgroundImageFix" result="effect1_dropShadow_1287_5416"/>
<feBlend mode="normal" in="SourceGraphic" in2="effect1_dropShadow_1287_5416" result="shape"/>
</filter>
</defs>
</svg>
