<svg width="38" height="38" viewBox="0 0 38 38" fill="none" xmlns="http://www.w3.org/2000/svg">
<g filter="url(#filter0_d_1287_5412)">
<path d="M4 2.14901C4 0.962462 4.98627 0 6.20296 0H31.797C33.0137 0 34 0.962466 34 2.14901V27.851C34 29.0379 33.0137 30 31.797 30L6.20296 30C4.98627 30 4 29.0379 4 27.851V2.14901ZM13.2688 25.1131V11.5664H8.76617V25.1131H13.2688ZM11.0175 9.71686C12.5877 9.71686 13.565 8.67662 13.565 7.37663C13.5357 6.04738 12.5877 5.03601 11.0473 5.03601C9.50704 5.03601 8.5 6.04738 8.5 7.37663C8.5 8.67662 9.47709 9.71686 10.9881 9.71686H11.0175ZM20.2214 25.1131V17.5481C20.2214 17.1432 20.2506 16.7387 20.3695 16.4493C20.695 15.6404 21.4359 14.8026 22.6798 14.8026C24.3091 14.8026 24.9608 16.0448 24.9608 17.8659V25.1131H29.4631V17.3456C29.4631 13.1847 27.2417 11.2485 24.2793 11.2485C21.8908 11.2485 20.8199 12.5613 20.2215 13.4844V13.531H20.1914C20.2013 13.5156 20.2113 13.5 20.2215 13.4844V11.5664H15.7189C15.778 12.8376 15.7189 25.1131 15.7189 25.1131H20.2214Z" fill="white"/>
</g>
<defs>
<filter id="filter0_d_1287_5412" x="0" y="0" width="38" height="38" filterUnits="userSpaceOnUse" color-interpolation-filters="sRGB">
<feFlood flood-opacity="0" result="BackgroundImageFix"/>
<feColorMatrix in="SourceAlpha" type="matrix" values="0 0 0 0 0 0 0 0 0 0 0 0 0 0 0 0 0 0 127 0" result="hardAlpha"/>
<feOffset dy="4"/>
<feGaussianBlur stdDeviation="2"/>
<feComposite in2="hardAlpha" operator="out"/>
<feColorMatrix type="matrix" values="0 0 0 0 0 0 0 0 0 0 0 0 0 0 0 0 0 0 0.25 0"/>
<feBlend mode="normal" in2="BackgroundImageFix" result="effect1_dropShadow_1287_5412"/>
<feBlend mode="normal" in="SourceGraphic" in2="effect1_dropShadow_1287_5412" result="shape"/>
</filter>
</defs>
</svg>
