<svg width="86" height="105" viewBox="0 0 86 105" fill="none" xmlns="http://www.w3.org/2000/svg">
<g clip-path="url(#clip0_3_44)">
<path d="M47.8656 5.96727C52.1297 5.81836 55.3883 6.21688 57.6413 7.16283C59.8914 8.0235 61.8901 9.02102 63.6374 10.1554C64.6816 10.7166 65.5082 11.1574 66.1171 11.4777C66.8082 11.7097 67.4523 11.8153 68.0493 11.7944C68.9021 11.7646 69.4827 11.2747 69.7911 10.3247C70.1847 9.37175 70.4767 7.9527 70.667 6.06758L73.6092 5.96483C73.5746 7.41759 73.5077 9.17032 73.4086 11.223C73.3918 13.1875 73.3989 15.8342 73.4297 19.1631C73.5429 22.4038 73.6933 26.7105 73.8809 32.0833L70.9387 32.186C70.5399 28.1014 69.5075 24.2098 67.8414 20.511C66.1753 16.8122 63.8081 13.821 60.7399 11.5374C57.7569 9.25073 53.8776 8.19081 49.1018 8.35758C44.5819 8.51542 40.8772 10.011 37.9876 12.8442C35.1833 15.6745 33.8586 19.3069 34.0135 23.7415C34.1475 27.5792 35.2414 30.7856 37.2952 33.3609C39.346 35.8508 42.029 38.1052 45.3441 40.1241C48.7416 42.0547 52.4008 44.1469 56.3219 46.4008C60.8518 48.9749 64.8701 51.5669 68.3766 54.1768C71.9655 56.6984 74.7972 59.5453 76.8718 62.7175C79.0318 65.8868 80.1921 69.774 80.353 74.3792C80.5436 79.8372 79.4648 84.4003 77.1167 88.0684C74.7687 91.7366 71.5791 94.5376 67.5482 96.4715C63.5172 98.4054 59.0286 99.4586 54.0822 99.6314C49.5623 99.7892 45.9626 99.4026 43.2832 98.4716C40.6037 97.5405 38.3065 96.5534 36.3916 95.5103C34.4738 94.3818 33.0031 93.8355 31.9797 93.8712C31.1269 93.901 30.5037 94.3924 30.1101 95.3454C29.8017 96.2954 29.5523 97.713 29.362 99.5981L26.4198 99.7008C26.5278 97.904 26.5402 95.8116 26.4568 93.4237C26.4557 90.9476 26.3866 87.748 26.2497 83.8251C26.1979 79.8992 26.0679 74.9514 25.8594 68.9817L28.8016 68.8789C29.3214 73.9839 30.4263 78.7269 32.1162 83.1079C33.8914 87.486 36.447 90.9829 39.783 93.5987C43.2013 96.1263 47.6394 97.2948 53.0974 97.1042C55.9117 97.0059 58.5361 96.3593 60.9705 95.1643C63.4873 93.881 65.5126 91.9745 67.0466 89.4447C68.5776 86.8297 69.2731 83.5181 69.1332 79.5098C69.0111 76.0133 68.0525 73.0156 66.2576 70.5167C64.5449 67.9296 62.1574 65.5795 59.0952 63.4664C56.0299 61.268 52.4515 59.0449 48.3599 56.797C44.2653 54.4638 40.425 52.079 36.8392 49.6427C33.2533 47.2064 30.3362 44.3624 28.0881 41.1109C25.9222 37.7711 24.7559 33.7134 24.5891 28.9376C24.4134 23.906 25.3776 19.7311 27.4818 16.413C29.6682 13.0066 32.5682 10.4719 36.1817 8.80876C39.7922 7.06036 43.6868 6.11319 47.8656 5.96727Z" fill="#24201C"/>
<path d="M28.73 5.9595V7.7595C26.69 7.8195 25.13 8.0595 24.05 8.4795C23.03 8.8395 22.34 9.5595 21.98 10.6395C21.62 11.6595 21.44 13.2795 21.44 15.4995V60.1395C21.44 62.2995 21.62 63.9195 21.98 64.9995C22.34 66.0795 23.03 66.7995 24.05 67.1595C25.13 67.5195 26.69 67.7595 28.73 67.8795V69.6795C27.35 69.5595 25.61 69.4995 23.51 69.4995C21.47 69.4395 19.4 69.4095 17.3 69.4095C14.96 69.4095 12.77 69.4395 10.73 69.4995C8.69 69.4995 7.04 69.5595 5.78 69.6795V67.8795C7.82 67.7595 9.35 67.5195 10.37 67.1595C11.45 66.7995 12.17 66.0795 12.53 64.9995C12.89 63.9195 13.07 62.2995 13.07 60.1395V15.4995C13.07 13.2795 12.89 11.6595 12.53 10.6395C12.17 9.5595 11.45 8.8395 10.37 8.4795C9.35 8.0595 7.82 7.8195 5.78 7.7595V5.9595C7.04 6.0195 8.69 6.0795 10.73 6.1395C12.77 6.1995 14.96 6.2295 17.3 6.2295C19.4 6.2295 21.47 6.1995 23.51 6.1395C25.61 6.0795 27.35 6.0195 28.73 5.9595Z" fill="#24201C"/>
<rect x="1" y="1.6795" width="84" height="1" fill="#24201C"/>
<rect x="1" y="2.6795" width="1" height="101" fill="#24201C"/>
<rect x="2" y="102.68" width="83" height="1" fill="#24201C"/>
<rect x="84" y="2.6795" width="1" height="101" fill="#24201C"/>
<path d="M6 68.6795H12.0297H18.1634H27L27 99.6795L25.5 99.6795L25.5 76.6795V69.6795L21.5 69.6795L6 69.6795L6 68.6795Z" fill="#24201C"/>
</g>
<defs>
<clipPath id="clip0_3_44">
<rect width="86" height="105" fill="white"/>
</clipPath>
</defs>
</svg>
